<svg xmlns="http://www.w3.org/2000/svg" width="36" height="36" viewBox="0 0 36 36" fill="none"><g clip-path="url(#clip0_1_261)"><path d="M34.6407 14.8703L19.9567 14.8696C19.3082 14.8696 18.7827 15.3951 18.7827 16.0436V20.7345C18.7827 21.3827 19.3082 21.9084 19.9566 21.9084H28.2258C27.3203 24.2583 25.6302 26.2263 23.474 27.4767L27 33.5805C32.6561 30.3093 36 24.5698 36 18.1448C36 17.2299 35.9326 16.576 35.7977 15.8396C35.6952 15.2801 35.2095 14.8703 34.6407 14.8703Z" fill="#167EE6"></path><path d="M18 28.9565C13.9532 28.9565 10.4204 26.7455 8.52304 23.4736L2.41949 26.9916C5.52555 32.3749 11.3442 36 18 36C21.2651 36 24.346 35.1209 27 33.5888V33.5805L23.474 27.4766C21.8612 28.4121 19.9948 28.9565 18 28.9565Z" fill="#12B347"></path><path d="M27 33.5889V33.5805L23.474 27.4767C21.8612 28.412 19.995 28.9565 18 28.9565V36C21.2651 36 24.3461 35.1209 27 33.5889Z" fill="#0F993E"></path><path d="M7.04349 18C7.04349 16.0053 7.58784 14.1391 8.52307 12.5264L2.41952 9.00836C0.879047 11.654 0 14.7265 0 18C0 21.2735 0.879047 24.346 2.41952 26.9916L8.52307 23.4736C7.58784 21.8609 7.04349 19.9947 7.04349 18Z" fill="#FFD500"></path><path d="M18 7.04348C20.6389 7.04348 23.0628 7.98117 24.9561 9.54091C25.4232 9.92566 26.1021 9.89789 26.5299 9.47004L29.8536 6.14637C30.339 5.66093 30.3044 4.86633 29.7859 4.41647C26.6137 1.66451 22.4864 0 18 0C11.3442 0 5.52555 3.6251 2.41949 9.00837L8.52304 12.5264C10.4204 9.25453 13.9532 7.04348 18 7.04348Z" fill="#FF4B26"></path><path d="M24.9562 9.54091C25.4232 9.92566 26.1022 9.89789 26.53 9.47004L29.8536 6.14637C30.339 5.66093 30.3044 4.86633 29.7859 4.41647C26.6138 1.66444 22.4864 0 18 0V7.04348C20.6388 7.04348 23.0629 7.98117 24.9562 9.54091Z" fill="#D93F21"></path></g><defs><clipPath id="clip0_1_261"><rect width="36" height="36" fill="white"></rect></clipPath></defs></svg>